<?xml version="1.0" encoding="UTF-8"?>
<!DOCTYPE svg PUBLIC "-//W3C//DTD SVG 1.1//EN" "http://www.w3.org/Graphics/SVG/1.1/DTD/svg11.dtd">
<svg version="1.2" width="76.2mm" height="76.2mm" viewBox="0 0 7620 7620" preserveAspectRatio="xMidYMid" fill-rule="evenodd" stroke-width="28.222" stroke-linejoin="round" xmlns="http://www.w3.org/2000/svg" xmlns:ooo="http://xml.openoffice.org/svg/export" xmlns:xlink="http://www.w3.org/1999/xlink" xmlns:presentation="http://sun.com/xmlns/staroffice/presentation" xmlns:smil="http://www.w3.org/2001/SMIL20/" xmlns:anim="urn:oasis:names:tc:opendocument:xmlns:animation:1.0" xml:space="preserve">
 <defs class="ClipPathGroup">
  <clipPath id="presentation_clip_path" clipPathUnits="userSpaceOnUse">
   <rect x="0" y="0" width="7620" height="7620"/>
  </clipPath>
  <clipPath id="presentation_clip_path_shrink" clipPathUnits="userSpaceOnUse">
   <rect x="7" y="7" width="7605" height="7605"/>
  </clipPath>
 </defs>
 <defs class="TextShapeIndex">
  <g ooo:slide="id1" ooo:id-list="id3"/>
 </defs>
 <defs class="EmbeddedBulletChars">
  <g id="bullet-char-template-57356" transform="scale(0.00048828125,-0.00048828125)">
   <path d="M 580,1141 L 1163,571 580,0 -4,571 580,1141 Z"/>
  </g>
  <g id="bullet-char-template-57354" transform="scale(0.00048828125,-0.00048828125)">
   <path d="M 8,1128 L 1137,1128 1137,0 8,0 8,1128 Z"/>
  </g>
  <g id="bullet-char-template-10146" transform="scale(0.00048828125,-0.00048828125)">
   <path d="M 174,0 L 602,739 174,1481 1456,739 174,0 Z M 1358,739 L 309,1346 659,739 1358,739 Z"/>
  </g>
  <g id="bullet-char-template-10132" transform="scale(0.00048828125,-0.00048828125)">
   <path d="M 2015,739 L 1276,0 717,0 1260,543 174,543 174,936 1260,936 717,1481 1274,1481 2015,739 Z"/>
  </g>
  <g id="bullet-char-template-10007" transform="scale(0.00048828125,-0.00048828125)">
   <path d="M 0,-2 C -7,14 -16,27 -25,37 L 356,567 C 262,823 215,952 215,954 215,979 228,992 255,992 264,992 276,990 289,987 310,991 331,999 354,1012 L 381,999 492,748 772,1049 836,1024 860,1049 C 881,1039 901,1025 922,1006 886,937 835,863 770,784 769,783 710,716 594,584 L 774,223 C 774,196 753,168 711,139 L 727,119 C 717,90 699,76 672,76 641,76 570,178 457,381 L 164,-76 C 142,-110 111,-127 72,-127 30,-127 9,-110 8,-76 1,-67 -2,-52 -2,-32 -2,-23 -1,-13 0,-2 Z"/>
  </g>
  <g id="bullet-char-template-10004" transform="scale(0.00048828125,-0.00048828125)">
   <path d="M 285,-33 C 182,-33 111,30 74,156 52,228 41,333 41,471 41,549 55,616 82,672 116,743 169,778 240,778 293,778 328,747 346,684 L 369,508 C 377,444 397,411 428,410 L 1163,1116 C 1174,1127 1196,1133 1229,1133 1271,1133 1292,1118 1292,1087 L 1292,965 C 1292,929 1282,901 1262,881 L 442,47 C 390,-6 338,-33 285,-33 Z"/>
  </g>
  <g id="bullet-char-template-9679" transform="scale(0.00048828125,-0.00048828125)">
   <path d="M 813,0 C 632,0 489,54 383,161 276,268 223,411 223,592 223,773 276,916 383,1023 489,1130 632,1184 813,1184 992,1184 1136,1130 1245,1023 1353,916 1407,772 1407,592 1407,412 1353,268 1245,161 1136,54 992,0 813,0 Z"/>
  </g>
  <g id="bullet-char-template-8226" transform="scale(0.00048828125,-0.00048828125)">
   <path d="M 346,457 C 273,457 209,483 155,535 101,586 74,649 74,723 74,796 101,859 155,911 209,963 273,989 346,989 419,989 480,963 531,910 582,859 608,796 608,723 608,648 583,586 532,535 482,483 420,457 346,457 Z"/>
  </g>
  <g id="bullet-char-template-8211" transform="scale(0.00048828125,-0.00048828125)">
   <path d="M -4,459 L 1135,459 1135,606 -4,606 -4,459 Z"/>
  </g>
  <g id="bullet-char-template-61548" transform="scale(0.00048828125,-0.00048828125)">
   <path d="M 173,740 C 173,903 231,1043 346,1159 462,1274 601,1332 765,1332 928,1332 1067,1274 1183,1159 1299,1043 1357,903 1357,740 1357,577 1299,437 1183,322 1067,206 928,148 765,148 601,148 462,206 346,322 231,437 173,577 173,740 Z"/>
  </g>
 </defs>
 <g>
  <g id="id2" class="Master_Slide">
   <g id="bg-id2" class="Background"/>
   <g id="bo-id2" class="BackgroundObjects"/>
  </g>
 </g>
 <g class="SlideGroup">
  <g>
   <g id="container-id1">
    <g id="id1" class="Slide" clip-path="url(#presentation_clip_path)">
     <g class="Page">
      <g class="com.sun.star.drawing.ClosedBezierShape">
       <g id="id3">
        <rect class="BoundingBox" stroke="none" fill="none" x="-19" y="-18" width="7658" height="7658"/>
        <path fill="rgb(255,255,255)" stroke="none" d="M 1709,4393 L 1930,4393 1287,2791 1040,2791 387,4393 612,4393 796,3924 1526,3924 1709,4393 Z M 1161,2954 L 1191,3049 C 1213,3114 1234,3174 1255,3226 L 1461,3755 862,3755 1066,3228 C 1103,3130 1131,3049 1150,2986 L 1161,2954 Z M 3352,2944 C 3465,2944 3563,2969 3645,3018 3727,3067 3787,3138 3824,3232 L 4030,3163 C 3976,3032 3892,2933 3777,2867 3663,2800 3521,2767 3350,2767 3106,2767 2915,2839 2777,2984 2639,3129 2570,3329 2570,3584 2570,3755 2601,3902 2663,4027 2725,4151 2814,4247 2932,4314 3050,4381 3190,4415 3351,4415 3509,4415 3647,4379 3767,4307 3886,4235 3979,4130 4045,3992 L 3867,3903 C 3754,4125 3586,4237 3361,4237 3186,4237 3047,4177 2945,4057 2842,3938 2791,3780 2791,3584 2791,3385 2840,3229 2939,3115 3037,3001 3175,2944 3352,2944 Z M 4493,3372 L 4490,3372 C 4491,3364 4492,3336 4495,3287 4498,3238 4499,3190 4499,3144 L 4499,2705 4294,2705 4294,4392 4499,4392 4499,3667 C 4499,3554 4528,3464 4586,3397 4644,3330 4721,3297 4817,3297 4882,3297 4932,3307 4968,3327 5005,3346 5031,3377 5047,3419 5063,3461 5071,3526 5071,3612 L 5071,4392 5277,4392 5277,3572 C 5277,3416 5245,3305 5182,3238 5118,3172 5020,3139 4887,3139 4792,3139 4714,3158 4652,3195 4590,3233 4537,3292 4493,3372 Z M 5584,2900 L 5788,2900 5788,2704 5584,2704 5584,2900 Z M 5584,4392 L 5788,4392 5788,3162 5584,3162 5584,4392 Z M 6883,4392 L 7089,4392 7089,3572 C 7089,3418 7057,3307 6995,3240 6932,3173 6834,3139 6699,3139 6607,3139 6530,3157 6468,3192 6407,3227 6352,3287 6305,3372 L 6302,3372 C 6300,3312 6299,3271 6298,3250 6297,3228 6296,3209 6295,3192 6294,3176 6294,3166 6293,3162 L 6100,3162 C 6104,3194 6106,3281 6106,3424 L 6106,4392 6311,4392 6311,3679 C 6311,3559 6339,3466 6396,3398 6453,3331 6531,3297 6629,3297 6697,3297 6748,3307 6783,3327 6818,3346 6843,3379 6859,3423 6875,3468 6883,3531 6883,3612 L 6883,4392 Z M 7109,5716 C 6775,6295 6294,6776 5715,7110 5135,7445 4478,7621 3810,7621 3141,7621 2484,7445 1904,7110 1325,6776 844,6295 510,5716 175,5136 -1,4479 -1,3811 -1,3142 175,2485 510,1905 844,1326 1325,845 1904,511 2484,176 3141,0 3809,0 4478,0 5135,176 5715,511 6294,845 6775,1326 7109,1905 7444,2485 7620,3142 7620,3810 7620,4479 7444,5136 7109,5716 Z"/>
        <path fill="none" stroke="rgb(0,0,0)" stroke-width="35" stroke-linejoin="round" d="M 1709,4393 L 1930,4393 1287,2791 1040,2791 387,4393 612,4393 796,3924 1526,3924 1709,4393 Z"/>
        <path fill="none" stroke="rgb(0,0,0)" stroke-width="35" stroke-linejoin="round" d="M 1161,2954 L 1191,3049 C 1213,3114 1234,3174 1255,3226 L 1461,3755 862,3755 1066,3228 C 1103,3130 1131,3049 1150,2986 L 1161,2954 Z"/>
        <path fill="none" stroke="rgb(0,0,0)" stroke-width="35" stroke-linejoin="round" d="M 3352,2944 C 3465,2944 3563,2969 3645,3018 3727,3067 3787,3138 3824,3232 L 4030,3163 C 3976,3032 3892,2933 3777,2867 3663,2800 3521,2767 3350,2767 3106,2767 2915,2839 2777,2984 2639,3129 2570,3329 2570,3584 2570,3755 2601,3902 2663,4027 2725,4151 2814,4247 2932,4314 3050,4381 3190,4415 3351,4415 3509,4415 3647,4379 3767,4307 3886,4235 3979,4130 4045,3992 L 3867,3903 C 3754,4125 3586,4237 3361,4237 3186,4237 3047,4177 2945,4057 2842,3938 2791,3780 2791,3584 2791,3385 2840,3229 2939,3115 3037,3001 3175,2944 3352,2944 Z"/>
        <path fill="none" stroke="rgb(0,0,0)" stroke-width="35" stroke-linejoin="round" d="M 4493,3372 L 4490,3372 C 4491,3364 4492,3336 4495,3287 4498,3238 4499,3190 4499,3144 L 4499,2705 4294,2705 4294,4392 4499,4392 4499,3667 C 4499,3554 4528,3464 4586,3397 4644,3330 4721,3297 4817,3297 4882,3297 4932,3307 4968,3327 5005,3346 5031,3377 5047,3419 5063,3461 5071,3526 5071,3612 L 5071,4392 5277,4392 5277,3572 C 5277,3416 5245,3305 5182,3238 5118,3172 5020,3139 4887,3139 4792,3139 4714,3158 4652,3195 4590,3233 4537,3292 4493,3372 Z"/>
        <path fill="none" stroke="rgb(0,0,0)" stroke-width="35" stroke-linejoin="round" d="M 5584,2900 L 5788,2900 5788,2704 5584,2704 5584,2900 Z"/>
        <path fill="none" stroke="rgb(0,0,0)" stroke-width="35" stroke-linejoin="round" d="M 5584,4392 L 5788,4392 5788,3162 5584,3162 5584,4392 Z"/>
        <path fill="none" stroke="rgb(0,0,0)" stroke-width="35" stroke-linejoin="round" d="M 6883,4392 L 7089,4392 7089,3572 C 7089,3418 7057,3307 6995,3240 6932,3173 6834,3139 6699,3139 6607,3139 6530,3157 6468,3192 6407,3227 6352,3287 6305,3372 L 6302,3372 C 6300,3312 6299,3271 6298,3250 6297,3228 6296,3209 6295,3192 6294,3176 6294,3166 6293,3162 L 6100,3162 C 6104,3194 6106,3281 6106,3424 L 6106,4392 6311,4392 6311,3679 C 6311,3559 6339,3466 6396,3398 6453,3331 6531,3297 6629,3297 6697,3297 6748,3307 6783,3327 6818,3346 6843,3379 6859,3423 6875,3468 6883,3531 6883,3612 L 6883,4392 Z"/>
        <path fill="none" stroke="rgb(0,0,0)" stroke-width="35" stroke-linejoin="round" d="M 7109,5716 C 6775,6295 6294,6776 5715,7110 5135,7445 4478,7621 3810,7621 3141,7621 2484,7445 1904,7110 1325,6776 844,6295 510,5716 175,5136 -1,4479 -1,3811 -1,3142 175,2485 510,1905 844,1326 1325,845 1904,511 2484,176 3141,0 3809,0 4478,0 5135,176 5715,511 6294,845 6775,1326 7109,1905 7444,2485 7620,3142 7620,3810 7620,4479 7444,5136 7109,5716 Z"/>
       </g>
      </g>
     </g>
    </g>
   </g>
  </g>
 </g>
</svg>